<svg xmlns="http://www.w3.org/2000/svg" xmlns:svg="http://www.w3.org/2000/svg" id="svg1890" width="414.587" height="415.31" version="1.0"><metadata id="metadata1895"/><path style="fill:#fff;fill-opacity:1;fill-rule:evenodd;stroke:#db0000;stroke-width:14.39999962;stroke-linecap:butt;stroke-linejoin:miter;stroke-miterlimit:4;stroke-opacity:1;stroke-dasharray:none" id="path1921" d="M 10.412929,196.57705 195.70141,11.600253 c 6.21922,-5.2183095 16.66204,-5.3173415 22.64672,-0.988309 0.13792,0.123371 6.19948,5.03072 6.18284,5.04004 L 402.49516,194.08368 c 6.67582,7.70171 6.31408,17.80524 1.24669,26.18037 L 221.57009,403.21498 c -6.74023,6.05781 -18.81849,6.15077 -26.25829,0.38959 L 9.1662491,217.77068 c -2.48979,-5.27037 -2.80562,-13.96803 1.2466799,-21.19363 z"/><path style="color:#000;fill:#000;fill-opacity:1;fill-rule:evenodd;stroke:none;stroke-width:2.09199405;marker:none;visibility:visible;display:inline;overflow:visible" id="path15328" d="m 208.45156,82.359707 c -25.12462,0 -45.5,18.835413 -45.5,42.093753 0,1.96306 0.1567,3.88962 0.4375,5.78125 l -0.65625,0 43.15625,163.5625 5.625,-0.0312 42.78125,-163.40625 -0.8125,0 c 0.29333,-1.93224 0.46875,-3.89914 0.46875,-5.90625 0,-23.25834 -20.37538,-42.093753 -45.5,-42.093753 z m 0,226.218753 c -9.4496,0 -17.09375,7.64416 -17.09375,17.09375 0,9.44959 7.64415,17.125 17.09375,17.125 9.4496,0 17.125,-7.67541 17.125,-17.125 0,-9.44959 -7.6754,-17.09375 -17.125,-17.09375 z"/></svg>