<svg xmlns="http://www.w3.org/2000/svg" xmlns:svg="http://www.w3.org/2000/svg" id="svg2" width="634.667" height="632" version="1.1" viewBox="0 0 634.667 632" xml:space="preserve"><metadata id="metadata8"/><defs id="defs6"><clipPath id="clipPath18" clipPathUnits="userSpaceOnUse"><path id="path16" d="M 0,474 H 476 V 0 H 0 Z"/></clipPath><clipPath id="clipPath34" clipPathUnits="userSpaceOnUse"><path id="path32" d="m 123.049,366.782 h 236.64 v -193.73 h -236.64 z"/></clipPath></defs><g id="g10" transform="matrix(1.3333333,0,0,-1.3333333,0,632)"><g id="g20" transform="translate(206.8711,450.0278)"><path style="fill:#f4f4f4;fill-opacity:1;fill-rule:nonzero;stroke:none" id="path22" d="m 0,0 c 62.889,11.377 127.24,-13.668 171.801,-57.991 2.213,-10.706 -6.874,-19.871 -6.912,-30.419 9.006,-20.699 21.093,-44.679 8.845,-66.602 10.234,-22.082 29.987,-41.163 37.017,-62.969 -1.658,-17.026 -27.573,-7.188 -30.181,-20.976 3.595,-13.551 -2.566,-27.021 -9.281,-38.28 -13.077,-7.03 5.45,-17.777 0.078,-27.615 -4.109,-17.497 -24.414,-16.747 -38.514,-20.343 -21.215,0.671 -46.934,0.039 -62.22,-17.142 -12.643,-11.182 -0.395,-34.686 -15.959,-43.259 -14.814,-8.768 -17.106,-28.203 -25.64,-42.151 -11.93,-6.242 -18.329,2.255 -26.309,7.269 -30.141,19.161 -57.872,41.916 -84.221,65.893 -9.757,9.757 -24.452,15.841 -29.233,29.707 6.715,19.04 18.252,37.132 14.539,58.426 -5.414,24.214 -16.909,46.575 -25.481,69.763 -10.152,21.291 -8.176,45.627 -13.273,68.224 7.228,31.524 11.693,66.128 36.184,89.87 C -72.411,-13.471 -35.514,-3.199 0,0"/></g><path id="path26" d="m 206.8711,450.0278 c 62.889,11.377 127.24,-13.668 171.801,-57.991 2.213,-10.706 -6.874,-19.871 -6.912,-30.419 9.006,-20.699 21.093,-44.679 8.845,-66.602 10.234,-22.082 29.987,-41.163 37.017,-62.969 -1.658,-17.026 -27.573,-7.188 -30.181,-20.976 3.595,-13.551 -2.566,-27.021 -9.281,-38.28 -13.077,-7.03 5.45,-17.777 0.078,-27.615 -4.109,-17.497 -24.414,-16.747 -38.514,-20.343 -21.215,0.671 -46.934,0.039 -62.22,-17.142 -12.643,-11.182 -0.395,-34.686 -15.959,-43.259 -14.814,-8.768 -17.106,-28.203 -25.64,-42.151 -11.93,-6.242 -18.329,2.255 -26.309,7.269 -30.141,19.161 -57.872,41.916 -84.221,65.893 -9.757,9.757 -24.452,15.841 -29.233,29.707 6.715,19.04 18.252,37.132 14.539,58.426 -5.414,24.214 -16.909,46.575 -25.481,69.763 -10.152,21.291 -8.176,45.627 -13.273,68.224 7.228,31.524 11.693,66.128 36.184,89.87 26.349,25.124 63.246,35.396 98.76,38.595 z" style="fill:none;stroke:#282450;stroke-width:10;stroke-linecap:butt;stroke-linejoin:miter;stroke-miterlimit:10;stroke-dasharray:none;stroke-opacity:1"/><path style="fill:#f68712;fill-opacity:1;fill-rule:nonzero;stroke:none" id="path36" d="m 123.0488,173.0518 v 193.73 h 83.281 l 35.039,-40.371 35.166,40.371 h 83.155 v -193.73 h -85.821 v 96.992 l -32.5,-37.451 -32.5,37.451 v -96.992 z"/><g id="g44" transform="translate(182.8584,234.293)" style="fill:#282450;fill-opacity:1"><path style="fill:#282450;fill-opacity:1;fill-rule:nonzero;stroke:none" id="path46" d="M 0,0 -59.81,-45.312 V -61.241 H 26.011 V 15.592 C 17.907,9.639 8.902,4.771 0,0"/></g><g id="g48" transform="translate(354.9502,349.9697)" style="fill:#282450;fill-opacity:1"><path style="fill:#282450;fill-opacity:1;fill-rule:nonzero;stroke:none" id="path50" d="m 0,0 c 0.043,-1.18 -0.363,-2.409 -1.415,-3.505 -19.127,-19.926 -44.564,-32.703 -67.814,-47.043 -22.064,-13.61 -46.078,-25.146 -66.467,-41.345 l 22.115,-25.484 32.5,37.451 v -96.992 H 4.739 V 2.261 C 3.224,1.38 1.677,0.605 0,0"/></g><g id="g52" transform="translate(118.5117,188.8867)"><path style="fill:#fff;fill-opacity:1;fill-rule:nonzero;stroke:#fff;stroke-width:8;stroke-linecap:butt;stroke-linejoin:miter;stroke-miterlimit:10;stroke-dasharray:none;stroke-opacity:1" id="path54" d="M 0,0 246.128,168.403"/></g></g></svg>